:FULLY-SPECIFIED
:FORCE-ALL-JOINTS-BE-3DOF
:DEGREES
1121
root 0.981852 14.6927 -28.3974 1.90076 5.43415 3.63942
lfemur -29.6609 9.28309 -24.5636
ltibia 70.4466 -0 0
lfoot -27.2592 25.6328 -0.007258
ltoes -19.4164 0 0
rfemur -54.1296 -9.0821 15.4685
rtibia 76.4985 -0 0
rfoot 1.38272 -1.98612 0.556948
rtoes -3.0327 0 0
lowerback 14.8875 0.330036 -10.1191
upperback -0.987247 -1.20766 1.85439
thorax -9.25722 -0.0173441 8.07694
lowerneck -4.48075 -2.43937 -4.17988
upperneck 4.93733 -3.19964 4.08527
head 2.51121 -1.57412 1.79554
lclavicle 3.49861e-14 -3.45885e-14 0
lhumerus 46.0207 -41.1038 57.7356
lradius 91.9421 -0 0
lwrist 36.4468 0 0
lhand -30.5716 33.9368 -0.247812
lfingers 7.12502 -0 0
lthumb -3.86859 63.8099 -0.236891
rclavicle 3.49861e-14 -3.45885e-14 0
rhumerus -14.7874 31.5316 -86.3092
rradius 88.2159 -0 0
rwrist -24.7835 0 0
rhand -20.3681 -43.9913 -0.243006
rfingers 7.12502 -0 0
rthumb 5.98292 -73.8212 -0.229933
1122
root 0.943739 14.7197 -28.2035 1.40254 7.30856 3.66579
lfemur -27.6246 8.88269 -23.8958
ltibia 69.5152 -0 0
lfoot -27.587 25.6803 -0.00782418
ltoes -19.5824 0 0
rfemur -53.3374 -8.73926 13.8776
rtibia 72.4543 -0 0
rfoot 4.53576 -1.60366 0.601036
rtoes -1.00503 0 0
lowerback 14.7505 0.29521 -9.97341
upperback -0.95268 -1.21106 1.85754
thorax -9.14098 -0.034881 7.99092
lowerneck -4.3025 -2.98262 -4.61822
upperneck 5.24313 -3.92564 4.3186
head 2.619 -1.93963 1.90038
lclavicle 3.49861e-14 -3.45885e-14 0
lhumerus 38.1723 -44.2403 62.1503
lradius 93.5644 -0 0
lwrist 37.0166 0 0
lhand -29.7928 33.2541 -0.267171
lfingers 7.12502 -0 0
lthumb -3.11657 63.1342 -0.255395
rclavicle 3.49861e-14 -3.45885e-14 0
rhumerus -9.22438 31.3928 -83.1021
rradius 89.9661 -0 0
rwrist -22.4866 0 0
rhand -21.1096 -43.2882 -0.261988
rfingers 7.12502 -0 0
rthumb 5.26707 -73.1322 -0.247893
1123
root 0.90521 14.7468 -28.0137 0.892754 9.22082 3.67581
lfemur -25.5546 8.45041 -23.2306
ltibia 68.5651 -0 0
lfoot -27.9213 25.7287 -0.00812202
ltoes -19.7516 0 0
rfemur -52.5403 -8.36733 12.2614
rtibia 68.3288 -0 0
rfoot 7.75242 -1.21161 0.624265
rtoes 1.0634 -0 0
lowerback 14.6106 0.260043 -9.82472
upperback -0.917418 -1.21454 1.86075
thorax -9.02238 -0.0525904 7.90314
lowerneck -4.11628 -3.53537 -5.06734
upperneck 5.55233 -4.6675 4.55284
head 2.72828 -2.3127 2.00665
lclavicle 3.49861e-14 -3.45885e-14 0
lhumerus 29.402 -46.9281 67.4925
lradius 95.2192 -0 0
lwrist 37.5978 0 0
lhand -28.9982 32.5576 -0.277356
lfingers 7.12502 -0 0
lthumb -2.34926 62.4447 -0.265131
rclavicle 3.49861e-14 -3.45885e-14 0
rhumerus -3.58435 30.9795 -79.8719
rradius 91.7515 -0 0
rwrist -20.1436 0 0
rhand -21.8661 -42.5708 -0.271975
rfingers 7.12502 -0 0
rthumb 4.53667 -72.4291 -0.257342
1124
root 0.866783 14.7737 -27.8294 0.377711 11.1425 3.66846
lfemur -23.482 7.9924 -22.5791
ltibia 67.6103 -0 0
lfoot -28.2573 25.7773 -0.0081367
ltoes -19.9217 0 0
rfemur -51.751 -7.97136 10.6442
rtibia 64.183 -0 0
rfoot 10.985 -0.816938 0.625411
rtoes 3.14202 -0 0
lowerback 14.4699 0.225069 -9.67521
upperback -0.881983 -1.21804 1.86398
thorax -8.90318 -0.070204 7.81488
lowerneck -3.92466 -4.08936 -5.52079
upperneck 5.86033 -5.41427 4.78446
head 2.83744 -2.68781 2.11275
lclavicle 3.49861e-14 -3.45885e-14 0
lhumerus 19.8313 -48.9961 73.6748
lradius 96.8823 -0 0
lwrist 38.1819 0 0
lhand -28.1997 31.8575 -0.277858
lfingers 7.12502 -0 0
lthumb -1.57811 61.7517 -0.265611
rclavicle 3.49861e-14 -3.45885e-14 0
rhumerus 2.0153 30.2941 -76.7072
rradius 93.5457 -0 0
rwrist -17.789 0 0
rhand -22.6264 -41.8497 -0.272467
rfingers 7.12502 -0 0
rthumb 3.80261 -71.7226 -0.257808
1125
root 0.828976 14.8 -27.6525 -0.136191 13.0452 3.64368
lfemur -21.4374 7.51624 -21.9517
ltibia 66.6649 -0 0
lfoot -28.59 25.8255 -0.00787011
ltoes -20.0901 0 0
rfemur -50.9816 -7.55775 9.04994
rtibia 60.0779 -0 0
rfoot 14.1858 -0.426689 0.604616
rtoes 5.20026 -0 0
lowerback 14.3305 0.190799 -9.52709
upperback -0.846895 -1.2215 1.86717
thorax -8.78511 -0.0874639 7.72745
lowerneck -3.73045 -4.6364 -5.97195
upperneck 6.16272 -6.15493 5.01012
head 2.94488 -3.05943 2.21714
lclavicle 3.49861e-14 -3.45885e-14 0
lhumerus 9.73397 -50.3133 80.4541
lradius 98.529 -0 0
lwrist 38.7602 0 0
lhand -27.409 31.1643 -0.268741
lfingers 7.12502 -0 0
lthumb -0.814568 61.0656 -0.256897
rclavicle 3.49861e-14 -3.45885e-14 0
rhumerus 7.4643 29.359 -73.6889
rradius 95.3223 -0 0
rwrist -15.4576 0 0
rhand -23.3792 -41.1359 -0.263528
rfingers 7.12502 -0 0
rthumb 3.07579 -71.023 -0.24935
1126
root 0.792309 14.8254 -27.4846 -0.642298 14.9005 3.6023
lfemur -19.4506 7.03082 -21.3573
ltibia 65.7428 -0 0
lfoot -28.9145 25.8725 -0.00734068
ltoes -20.2544 0 0
rfemur -50.2434 -7.13414 7.50214
rtibia 56.0744 -0 0
rfoot 17.3072 -0.047796 0.56338
rtoes 7.20756 -0 0
lowerback 14.1945 0.157725 -9.38255
upperback -0.812676 -1.22488 1.87028
thorax -8.66994 -0.104123 7.64216
lowerneck -3.53673 -5.16841 -6.41408
upperneck 6.45523 -6.87838 5.22672
head 3.04904 -3.42205 2.31832
lclavicle 3.49861e-14 -3.45885e-14 0
lhumerus -0.472969 -50.8224 87.4439
lradius 100.135 -0 0
lwrist 39.3243 0 0
lhand -26.638 30.4885 -0.250639
lfingers 7.12502 -0 0
lthumb -0.0700794 60.3966 -0.239593
rclavicle 3.49861e-14 -3.45885e-14 0
rhumerus 12.6648 28.2139 -70.8844
rradius 97.0549 -0 0
rwrist -13.1838 0 0
rhand -24.1132 -40.4398 -0.245777
rfingers 7.12502 -0 0
rthumb 2.36712 -70.3409 -0.232556
1127
root 0.7573 14.8496 -27.3273 -1.13354 16.6801 3.54616
lfemur -17.5514 6.5462 -20.8039
ltibia 64.8582 -0 0
lfoot -29.2258 25.9175 -0.00658269
ltoes -20.4119 0 0
rfemur -49.5469 -6.70933 6.02381
rtibia 52.2334 -0 0
rfoot 20.3015 0.313083 0.504485
rtoes 9.13334 -0 0
lowerback 14.0639 0.126317 -9.24381
upperback -0.779847 -1.22813 1.87326
thorax -8.55942 -0.119944 7.56029
lowerneck -3.34684 -5.6774 -6.84033
upperneck 6.7337 -7.57347 5.43135
head 3.14841 -3.77011 2.4148
lclavicle 3.49861e-14 -3.45885e-14 0
lhumerus -10.3123 -50.5612 94.1989
lradius 101.676 -0 0
lwrist 39.8654 0 0
lhand -25.8986 29.8405 -0.224727
lfingers 7.12502 -0 0
lthumb 0.643939 59.7551 -0.214825
rclavicle 3.49861e-14 -3.45885e-14 0
rhumerus 17.5342 26.9126 -68.3433
rradius 98.7171 -0 0
rwrist -11.0023 0 0
rhand -24.8171 -39.7723 -0.220369
rfingers 7.12502 -0 0
rthumb 1.68745 -69.6867 -0.208516
1128
root 0.724467 14.8722 -27.1824 -1.60229 18.3556 3.4781
lfemur -15.7686 6.0734 -20.2982
ltibia 64.0251 -0 0
lfoot -29.5189 25.96 -0.00564493
ltoes -20.5603 0 0
rfemur -48.9017 -6.29309 4.63754
rtibia 48.616 -0 0
rfoot 23.1211 0.649708 0.431853
rtoes 10.947 -0 0
lowerback 13.9409 0.0970265 -9.11308
upperback -0.748929 -1.23118 1.87607
thorax -8.45532 -0.134701 7.48316
lowerneck -3.16437 -6.15547 -7.24367
upperneck 6.99409 -8.229 5.62127
head 3.2415 -4.09806 2.50515
lclavicle 3.49861e-14 -3.45885e-14 0
lhumerus -19.3636 -49.6566 100.335
lradius 103.127 -0 0
lwrist 40.375 0 0
lhand -25.2025 29.2305 -0.19268
lfingers 7.12502 -0 0
lthumb 1.31611 59.1512 -0.184192
rclavicle 3.49861e-14 -3.45885e-14 0
rhumerus 22.0048 25.5184 -66.0974
rradius 100.283 -0 0
rwrist -8.94787 0 0
rhand -25.4798 -39.1439 -0.188945
rfingers 7.12502 -0 0
rthumb 1.04764 -69.071 -0.178784
1129
root 0.694329 14.8929 -27.0513 -2.04026 19.8989 3.40187
lfemur -14.1313 5.62415 -19.8459
ltibia 63.2576 -0 0
lfoot -29.7891 25.9991 -0.00458871
ltoes -20.6971 0 0
rfemur -48.3169 -5.896 3.36551
rtibia 45.2831 -0 0
rfoot 25.7185 0.95635 0.350351
rtoes 12.6181 -0 0
lowerback 13.8275 0.0702881 -8.99257
upperback -0.720442 -1.234 1.87865
thorax -8.35938 -0.148172 7.41208
lowerneck -2.99311 -6.59479 -7.61698
upperneck 7.23246 -8.83372 5.79386
head 3.32684 -4.40035 2.58795
lclavicle 3.49861e-14 -3.45885e-14 0
lhumerus -27.3443 -48.2953 105.609
lradius 104.464 -0 0
lwrist 40.8446 0 0
lhand -24.5615 28.6688 -0.156598
lfingers 7.12502 -0 0
lthumb 1.93509 58.5952 -0.149701
rclavicle 3.49861e-14 -3.45885e-14 0
rhumerus 26.0215 24.1 -64.1627
rradius 101.725 -0 0
rwrist -7.05498 0 0
rhand -26.09 -38.5654 -0.153563
rfingers 7.12502 -0 0
rthumb 0.458465 -68.5039 -0.145306
1130
root 0.667405 14.9113 -26.9359 -2.43849 21.2816 3.32214
lfemur -12.6677 5.21071 -19.4519
ltibia 62.5695 -0 0
lfoot -30.0312 26.0341 -0.00348533
ltoes -20.8196 0 0
rfemur -47.8007 -5.52919 2.22961
rtibia 42.2957 -0 0
rfoot 28.0462 1.22782 0.265554
rtoes 14.1159 -0 0
lowerback 13.7258 0.0465241 -8.88452
upperback -0.694908 -1.23653 1.88097
thorax -8.27338 -0.160146 7.34834
lowerneck -2.83702 -6.98762 -7.953
upperneck 7.44489 -9.37635 5.94664
head 3.40299 -4.67141 2.66182
lclavicle 3.49861e-14 -3.45885e-14 0
lhumerus -34.1168 -46.6869 109.932
lradius 105.662 -0 0
lwrist 41.2654 0 0
lhand -23.9873 28.1658 -0.11892
lfingers 7.12502 -0 0
lthumb 2.4896 58.0971 -0.113683
rclavicle 3.49861e-14 -3.45885e-14 0
rhumerus 29.538 22.7279 -62.5419
rradius 103.018 -0 0
rwrist -5.35831 0 0
rhand -26.6366 -38.0471 -0.116616
rfingers 7.12502 -0 0
rthumb -0.069333 -67.996 -0.110347
1131
root 0.644213 14.9272 -26.8378 -2.78733 22.4758 3.24425
lfemur -11.4064 4.84556 -19.1204
ltibia 61.9751 -0 0
lfoot -30.2403 26.0644 -0.00241285
ltoes -20.9255 0 0
rfemur -47.3609 -5.20415 1.25151
rtibia 39.7148 -0 0
rfoot 30.0569 1.45941 0.183469
rtoes 15.41 -0 0
lowerback 13.6379 0.0261478 -8.79113
upperback -0.672849 -1.23871 1.88297
thorax -8.19906 -0.170414 7.29326
lowerneck -2.70019 -7.32626 -8.2444
upperneck 7.62751 -9.8456 6.07719
head 3.46852 -4.90567 2.72536
lclavicle 3.49861e-14 -3.45885e-14 0
lhumerus -39.6466 -45.0352 113.321
lradius 106.697 -0 0
lwrist 41.6291 0 0
lhand -23.4915 27.7315 -0.0823108
lfingers 7.12502 -0 0
lthumb 2.9684 57.6671 -0.0786871
rclavicle 3.49861e-14 -3.45885e-14 0
rhumerus 32.5133 21.4717 -61.2297
rradius 104.135 -0 0
rwrist -3.89247 0 0
rhand -27.1086 -37.5997 -0.0807164
rfingers 7.12502 -0 0
rthumb -0.525056 -67.5574 -0.0763783
